<svg width="16" height="16" viewBox="0 0 16 16" fill="none" xmlns="http://www.w3.org/2000/svg">
<g clip-path="url(#clip0_67_965)">
<path d="M10.3338 9.33375H9.80708L9.62042 9.15375C10.4204 8.22042 10.8338 6.94708 10.6071 5.59375C10.2938 3.74042 8.74708 2.26042 6.88042 2.03375C4.06042 1.68708 1.68708 4.06042 2.03375 6.88042C2.26042 8.74708 3.74042 10.2937 5.59375 10.6071C6.94708 10.8337 8.22042 10.4204 9.15375 9.62042L9.33375 9.80708V10.3337L12.1671 13.1671C12.4404 13.4404 12.8871 13.4404 13.1604 13.1671C13.4338 12.8938 13.4338 12.4471 13.1604 12.1737L10.3338 9.33375ZM6.33375 9.33375C4.67375 9.33375 3.33375 7.99375 3.33375 6.33375C3.33375 4.67375 4.67375 3.33375 6.33375 3.33375C7.99375 3.33375 9.33375 4.67375 9.33375 6.33375C9.33375 7.99375 7.99375 9.33375 6.33375 9.33375Z" fill="#323232"/>
</g>
<defs>
<clipPath id="clip0_67_965">
<rect width="16" height="16" fill="white"/>
</clipPath>
</defs>
</svg>
